	<!-- Generator: Adobe Illustrator 15.1.0, SVG Export Plug-In . SVG Version: 6.00 Build 0)  -->
	<!DOCTYPE svg PUBLIC "-//W3C//DTD SVG 1.1//EN" "http://www.w3.org/Graphics/SVG/1.1/DTD/svg11.dtd">
	<svg version="1.1" id="Layer_1" xmlns="http://www.w3.org/2000/svg" xmlns:xlink="http://www.w3.org/1999/xlink" x="0px" y="0px"
		 width="1068px" height="753.318px" viewBox="0 0 1068 753.318" enable-background="new 0 0 1068 753.318" xml:space="preserve">
	<g>
		<g>
			<defs>
				<path id="SVGID_1_" d="M697.251,122.174c-119.246,34.801-163.252,27.228-163.252,27.228s-43.996,7.573-163.236-27.228
					c0,0-95.802-24.285-333.315,13.949v68.559c0,0,27.367,5.864,30.298,26.395c-0.975,54.394,7.47,127.75,43.495,170.955
					c60.038,72.016,198.084,64.478,272.235,25.575c0.03-0.034,80.162-42.086,110.452-165.237c0,0,6.848-41.068,40.071-41.068
					c33.238,0,40.087,41.068,40.087,41.068c30.289,123.151,110.407,165.203,110.467,165.237
					c74.139,38.902,212.194,46.44,272.205-25.575c36.023-43.205,44.483-116.561,43.495-170.955
					c2.929-20.531,30.301-26.395,30.301-26.395v-68.559C793.04,97.889,697.251,122.174,697.251,122.174L697.251,122.174z
					 M409.733,369.027c0,0-32.663,50.438-124.183,62.581c0,0-110.19,18.682-152.209-55.097c0,0-47.627-87.796-9.334-193.346
					c0,0,8.415-40.159,161.543-42.031c0,0,155.004,2.8,167.122,70.04C452.673,211.173,467.632,284.971,409.733,369.027
					L409.733,369.027z M934.667,376.511c-42.022,73.778-152.224,55.097-152.224,55.097c-91.51-12.143-124.178-62.581-124.178-62.581
					c-57.874-84.056-42.94-157.854-42.94-157.854c12.129-67.239,167.118-70.04,167.118-70.04
					c153.143,1.872,161.562,42.031,161.562,42.031C982.283,288.715,934.667,376.511,934.667,376.511L934.667,376.511z"/>
			</defs>
			<use xlink:href="#SVGID_1_"  overflow="visible" class="dogglasses" fill="#01999A"/>
			<clipPath id="SVGID_2_">
				<use xlink:href="#SVGID_1_"  overflow="visible"/>
			</clipPath>
		</g>
		<path class="dogface" fill="#33BAB7" d="M577.337,148.171c-30.526,3.436-43.333,1.233-43.333,1.233c-0.005,0-16.574,2.852-56.945-2.99
			l33.532,83.849c5.758-5.222,13.387-8.96,23.413-8.96c8.308,0,14.964,2.567,20.279,6.416L577.337,148.171z"/>
	</g>
	<g>
		<defs>
			<path id="SVGID_3_" d="M794.961,596.783c-13.412,21.498-32.138,39.475-54.161,51.971c-22.729,12.895-48.638,19.719-74.91,19.719
				c-40.616,0-78.792-15.82-107.505-44.547c-28.709-28.719-44.526-66.908-44.526-107.527c0-11.134,9.023-20.163,20.16-20.163
				c11.133,0,20.156,9.029,20.156,20.163c0,29.851,11.612,57.914,32.712,79.023c21.104,21.102,49.159,32.732,79.003,32.732
				c19.316,0,38.337-5.014,55.024-14.473c16.197-9.193,29.981-22.418,39.845-38.234c5.891-9.451,18.325-12.332,27.766-6.436
				C797.972,574.896,800.855,587.338,794.961,596.783L794.961,596.783z M509.609,623.926
				c-28.714,28.727-66.889,44.547-107.501,44.547c-26.271,0-52.178-6.824-74.912-19.719c-22.025-12.496-40.752-30.473-54.163-51.971
				c-5.89-9.445-3.011-21.887,6.436-27.771c9.441-5.896,21.87-3.016,27.766,6.436c9.874,15.816,23.644,29.041,39.845,38.234
				c16.688,9.459,35.709,14.473,55.029,14.473c29.839,0,57.895-11.631,78.998-32.732c21.1-21.109,32.723-49.172,32.723-79.023
				c0-11.134,9.019-20.163,20.155-20.163s20.156,9.029,20.156,20.163C554.141,557.018,538.322,595.207,509.609,623.926
				L509.609,623.926z"/>
		</defs>
		<use xlink:href="#SVGID_3_"  overflow="visible" class="dogface" fill="#33BAB7"/>
		<clipPath id="SVGID_4_">
			<use xlink:href="#SVGID_3_"  overflow="visible"/>
		</clipPath>
		<g transform="matrix(1 0 0 1 0 0)" clip-path="url(#SVGID_4_)">

				<image overflow="visible" width="800" height="600" xlink:href="55E423AF.jpg"  transform="matrix(3.0278 0 0 3.0278 1596.7568 -539.5259)">
			</image>
		</g>
	</g>
	<path class="dogface" fill="#33BAB7" d="M637.652,454.033c-4.312-10.409-14.457-16.833-25.716-16.837l-153.107,0.112c-0.006,0-0.016,0-0.021,0
		c-11.259,0-24.14,6.573-28.453,16.976c-4.312,10.407-1.936,21.661,6.033,29.632l77.971,77.991c5.222,5.229,12.306,8.16,19.689,8.16
		c7.383,0,14.467-2.842,19.688-8.072l77.873-77.793C639.563,476.23,641.956,464.435,637.652,454.033z M533.999,477.895
		c-18.396,0-33.306-5.423-33.306-12.111c0-6.691,14.909-12.112,33.306-12.112c18.393,0,33.307,5.421,33.307,12.112
		C567.306,472.472,552.392,477.895,533.999,477.895z"/>
	<g>
		<defs>
			<path id="SVGID_5_" d="M356.238,368.813c-4.408,0-8.806-1.71-12.165-5.129c-14.669-14.943-38.539-14.943-53.213,0
				c-6.718,6.839-17.611,6.839-24.326,0c-6.718-6.848-6.718-17.942,0-24.778c13.603-13.861,31.695-21.495,50.942-21.495
				c19.229,0,37.325,7.634,50.928,21.495c6.715,6.836,6.715,17.938,0,24.778C365.044,367.104,360.641,368.813,356.238,368.813
				L356.238,368.813z"/>
		</defs>
		<use xlink:href="#SVGID_5_" class="dogface"  overflow="visible" fill="#33BAB7"/>
		<clipPath id="SVGID_6_">
			<use xlink:href="#SVGID_5_"  overflow="visible"/>
		</clipPath>
	</g>
	<g>
		<defs>
			<path id="SVGID_7_" d="M783.155,368.813c-4.396,0-8.808-1.71-12.162-5.129c-14.669-14.943-38.534-14.943-53.203,0
				c-6.72,6.839-17.611,6.839-24.332,0c-6.715-6.848-6.715-17.942,0-24.778c13.604-13.861,31.695-21.495,50.934-21.495
				c19.241,0,37.329,7.634,50.933,21.495c6.715,6.836,6.715,17.938,0,24.778C791.964,367.104,787.562,368.813,783.155,368.813
				L783.155,368.813z"/>
		</defs>
		<use xlink:href="#SVGID_7_" class="dogface"  overflow="visible" fill="#33BAB7"/>
		<clipPath id="SVGID_8_">
			<use xlink:href="#SVGID_7_" class="dogface"  overflow="visible"/>
		</clipPath>
	</g>
	</svg>
