<?xml version="1.0" encoding="utf-8"?>
<!-- Generator: Adobe Illustrator 15.1.0, SVG Export Plug-In . SVG Version: 6.00 Build 0)  -->
<!DOCTYPE svg PUBLIC "-//W3C//DTD SVG 1.1//EN" "http://www.w3.org/Graphics/SVG/1.1/DTD/svg11.dtd">
<svg version="1.1" id="Layer_2" xmlns="http://www.w3.org/2000/svg" xmlns:xlink="http://www.w3.org/1999/xlink" x="0px" y="0px"
	 width="60px" height="60px" viewBox="0 0 60 60" enable-background="new 0 0 60 60" xml:space="preserve">
<g>
	<path fill="#010101" d="M11,34.521H1c-0.553,0-1,0.447-1,1v18c0,0.552,0.447,1,1,1h10c0.553,0,1-0.448,1-1v-18
		C12,34.969,11.552,34.521,11,34.521z"/>
	<path fill="#010101" d="M59.707,44.814c-2.965-2.965-5.027-3.071-8.051-2.205l-4.958,1.57c-0.119,1.027-0.495,1.979-1.114,2.727
		c-0.878,1.057-2.117,1.615-3.584,1.615h-1H28c-0.553,0-1-0.448-1-1c0-0.553,0.447-1,1-1h13h1c0.864,0,1.553-0.301,2.046-0.895
		c0.449-0.541,0.707-1.312,0.707-2.119c0-0.146-0.012-0.308-0.034-0.476c-0.51-1.398-1.764-2.523-3.713-2.525
		c-1.17,0.001-2.003,0.005-2.705,0.009c-0.783,0.002-1.417,0.004-2.191,0.004c-0.777,0-1.562,0-2.762-0.01
		c-3.44-2.646-7.257-3.988-11.348-3.988h-8c-0.553,0-1,0.447-1,1v13.844c0,0.431,0.275,0.812,0.684,0.949
		c3.909,1.303,7.004,2.428,9.49,3.332c5.066,1.843,7.896,2.853,10.487,2.853c3.173,0,5.985-1.515,12.104-4.869
		c3.238-1.776,7.676-4.21,13.683-7.213c0.286-0.144,0.487-0.417,0.54-0.733C60.039,45.364,59.934,45.041,59.707,44.814z"/>
	<rect x="35.772" y="24.498" fill="#010101" width="4.136" height="13.834"/>
	<rect x="42.114" y="17.166" fill="#010101" width="3.859" height="21.167"/>
	<rect x="48.181" y="20.166" fill="#010101" width="3.859" height="18.167"/>
	<rect x="54.247" y="13.166" fill="#010101" width="3.859" height="25.167"/>
</g>
</svg>
