<?xml version="1.0" encoding="utf-8"?>
<!-- Generator: Adobe Illustrator 15.1.0, SVG Export Plug-In . SVG Version: 6.00 Build 0)  -->
<!DOCTYPE svg PUBLIC "-//W3C//DTD SVG 1.1//EN" "http://www.w3.org/Graphics/SVG/1.1/DTD/svg11.dtd">
<svg version="1.1" id="Layer_1" xmlns="http://www.w3.org/2000/svg" xmlns:xlink="http://www.w3.org/1999/xlink" x="0px" y="0px"
	 width="60px" height="60px" viewBox="0 0 60 60" enable-background="new 0 0 60 60" xml:space="preserve">
<g id="Layer_3">
	<g>
		<path fill="#010101" d="M40.775,36c1.209-4.3,2.562-10.473,2.562-13c0-0.552-0.399-1-0.892-1H17.479c-0.492,0-0.892,0.448-0.892,1
			c0,2.527,1.353,8.7,2.562,13H40.775z"/>
		<polygon fill="#010101" points="23.133,60 36.871,60 39.375,42 20.55,42 		"/>
		<path fill="#010101" d="M30,20c5.514,0,10-4.486,10-10S35.514,0,30,0c-5.514,0-10,4.486-10,10S24.486,20,30,20z"/>
		<path fill="#010101" d="M54,38H39.932H19.977H6c-0.55,0-1,0.45-1,1s0.45,1,1,1h16.284h15.349H54c0.55,0,1-0.45,1-1S54.55,38,54,38
			z"/>
	</g>
</g>
<g id="nyt_x5F_exporter_x5F_info" display="none">
</g>
</svg>
